Coordinates
version=1
nRows=11
nColumns=40
inDegrees=yes

Units are S.I. units (second, meters, Newtons, ...)
Angles are in degrees.

endheader
time	pelvis_tilt	pelvis_list	pelvis_rotation	pelvis_tx	pelvis_ty	pelvis_tz	hip_flexion_r	hip_adduction_r	hip_rotation_r	knee_angle_r	knee_angle_r_beta	ankle_angle_r	subtalar_angle_r	mtp_angle_r	hip_flexion_l	hip_adduction_l	hip_rotation_l	knee_angle_l	knee_angle_l_beta	ankle_angle_l	subtalar_angle_l	mtp_angle_l	lumbar_extension	lumbar_bending	lumbar_rotation	arm_flex_r	arm_add_r	arm_rot_r	elbow_flex_r	pro_sup_r	wrist_flex_r	wrist_dev_r	arm_flex_l	arm_add_l	arm_rot_l	elbow_flex_l	pro_sup_l	wrist_flex_l	wrist_dev_l
      4.09614286	      0.55334550	     -3.00398193	     -1.94281302	      1.00452812	      0.93109977	      0.41813563	     24.15540053	     -7.33946599	     -8.54051871	     56.48648255	     56.48648255	     13.20950450	    -19.56754023	     21.18132799	     11.20188977	     -1.65420047	     -7.92543460	     25.10537309	     25.10537309	     16.53943559	    -17.87808085	      3.26791679	    -11.00595944	      2.88172530	      3.28369149	     16.29429172	    -12.43799376	    -10.07692587	     37.84251152	     46.17267664	      0.00000000	      0.00000000	     17.97001172	    -13.47130976	     -0.66147982	     48.77853874	     45.85916264	      0.00000000	      0.00000000
      4.11478571	      0.42595686	     -3.39328801	     -2.48782878	      1.00357852	      0.93095212	      0.41863876	     24.35492736	     -6.44967012	     -8.37187572	     53.45044297	     53.45044297	     13.16107578	    -19.48607167	     19.88281007	     11.04833334	     -2.17689773	     -8.33378769	     25.33791607	     25.33791607	     16.89967268	    -17.81377403	      3.41689277	    -11.18655702	      3.40691036	      3.60201782	     13.95315958	    -12.60879267	     -9.61384085	     35.24947835	     46.22834054	      0.00000000	      0.00000000	     18.80188191	    -13.49354090	     -1.00583377	     50.46739785	     45.93318125	      0.00000000	      0.00000000
      4.13342857	      0.24361033	     -3.74314451	     -2.98619074	      1.00277539	      0.93093003	      0.41928506	     24.33460011	     -5.67081128	     -8.46693209	     49.86378801	     49.86378801	     11.91802891	    -19.35971741	     15.57985831	     10.83947327	     -2.63125137	     -8.68475614	     25.36819206	     25.36819206	     17.29300205	    -17.76469346	      3.76600238	    -11.24315415	      3.90874608	      2.90982941	     12.70622333	    -12.36012675	     -8.34922665	     31.31150806	     46.28783281	      0.00000000	      0.00000000	     18.64738049	    -14.15630461	     -1.89310208	     53.15242882	     46.10230373	      0.00000000	      0.00000000
      4.15207143	     -0.01176407	     -4.08858760	     -3.50101484	      1.00205356	      0.93098386	      0.42030732	     24.37172193	     -4.76316229	     -8.39123753	     46.21352626	     46.21352626	     11.15608035	    -19.13270279	     13.77939659	     10.60171148	     -3.11392272	     -9.11512488	     25.21872299	     25.21872299	     17.46770685	    -17.66812351	      3.65166149	    -11.26372543	      4.35718544	      3.17898782	     10.11069564	    -12.45990893	     -7.93703782	     29.52378935	     46.31127474	      0.00000000	      0.00000000	     19.33800274	    -14.16785433	     -2.50904370	     55.05086170	     46.21344213	      0.00000000	      0.00000000
      4.17071429	     -0.19806948	     -4.50075189	     -3.96863576	      1.00145995	      0.93142702	      0.42161126	     24.16956729	     -3.73529482	     -8.30365015	     42.34960602	     42.34960602	     10.48221981	    -18.67758472	     13.00972924	     10.20621717	     -3.66238299	     -9.49275256	     24.94150101	     24.94150101	     17.57186467	    -17.60833977	      3.60290182	    -11.37617495	      4.89680500	      3.17063523	      7.60756129	    -12.43068820	     -7.78455523	     28.28570332	     46.33161255	      0.00000000	      0.00000000	     20.04787459	    -14.41728904	     -2.92512295	     56.40405125	     46.28164661	      0.00000000	      0.00000000
      4.18935714	     -0.46983468	     -4.68138257	     -4.43571832	      1.00114717	      0.93174873	      0.42299205	     23.71553499	     -3.11650961	     -8.61392029	     37.89374750	     37.89374750	      7.44870290	    -18.12136621	      5.15735171	      9.70755481	     -3.95644770	    -10.03297644	     24.28957830	     24.28957830	     17.29457557	    -17.45640606	      2.62350431	    -11.37387086	      5.14536731	      2.70876018	      5.24194273	    -12.26710286	     -7.18631540	     27.22769017	     46.31807926	      0.00000000	      0.00000000	     19.77632837	    -14.89486891	     -4.26118511	     59.78894306	     46.49683297	      0.00000000	      0.00000000
      4.20800000	     -0.80013879	     -4.90128792	     -4.88200995	      1.00088782	      0.93219031	      0.42466470	     23.50921708	     -2.36669446	     -8.70187166	     34.04831699	     34.04831699	      6.92348179	    -16.40127706	      5.13134215	      9.24907224	     -4.28030138	    -10.45004246	     23.63009309	     23.63009309	     17.34397532	    -17.28529125	      2.61886934	    -11.24219403	      5.44525488	      2.69729805	      2.66598639	    -12.19918651	     -7.12389751	     26.25298663	     46.33317485	      0.00000000	      0.00000000	     20.46976702	    -15.12251808	     -4.64228984	     60.94474535	     46.55603214	      0.00000000	      0.00000000
      4.22664286	     -1.02602889	     -4.96019891	     -5.33418191	      1.00101496	      0.93263904	      0.42642218	     22.95636689	     -1.90886091	     -9.11059512	     29.95706489	     29.95706489	      5.06947155	    -14.25163708	      0.79167935	      8.49295391	     -4.42717912	    -11.09886470	     22.63219021	     22.63219021	     16.81775356	    -17.05005960	      1.16965177	    -11.28098574	      5.57486206	      2.46248743	     -0.20081211	    -12.10285231	     -7.14611865	     26.72367633	     46.29806194	      0.00000000	      0.00000000	     20.29974375	    -15.43637983	     -5.94507884	     64.41381414	     46.75882935	      0.00000000	      0.00000000
      4.24528571	     -1.32874913	     -5.02870784	     -5.75406774	      1.00120314	      0.93303454	      0.42840266	     22.59243716	     -1.38579124	     -9.38471741	     26.40250514	     26.40250514	      4.57866679	    -11.49450962	      0.95388532	      7.84889579	     -4.56291926	    -11.58420288	     21.72317038	     21.72317038	     16.82726829	    -16.74190969	      1.10504632	    -11.09549656	      5.74969881	      2.46110718	     -2.64116793	    -11.98815105	     -7.12813884	     25.93829093	     46.30954582	      0.00000000	      0.00000000	     20.95845992	    -15.62658645	     -6.32647060	     65.62728870	     46.81816815	      0.00000000	      0.00000000
      4.26392857	     -1.51844551	     -4.89299316	     -6.18295874	      1.00173692	      0.93329315	      0.43050253	     22.18529313	     -1.26407199	    -10.15981889	     23.35757929	     23.35757929	      4.19434358	     -7.66686167	      0.39030838	      6.93540919	     -4.46121032	    -12.23956152	     20.53374983	     20.53374983	     16.50126484	    -16.30131779	      0.15058329	    -11.07380838	      5.59466647	      2.46274566	     -5.32986698	    -11.87228275	     -7.36399721	     26.17053526	     46.29593787	      0.00000000	      0.00000000	     21.18662568	    -15.80514272	     -7.18043820	     68.27912239	     46.94509934	      0.00000000	      0.00000000
      4.28257143	     -1.72605656	     -4.88403989	     -6.56639333	      1.00244067	      0.93343617	      0.43279078	     21.70398875	     -0.83857905	    -10.41100840	     20.47905097	     20.47905097	      3.67524973	     -4.94400946	      0.69988572	      6.11016442	     -4.49747950	    -12.81093512	     19.52821793	     19.52821793	     16.40448029	    -15.92873300	     -0.31159729	    -10.96838722	      5.72928759	      2.35573093	     -7.55674461	    -11.71606331	     -7.49974664	     25.98949390	     46.29448297	      0.00000000	      0.00000000	     21.60212396	    -16.04270895	     -7.74001349	     69.93973324	     47.02461609	      0.00000000	      0.00000000
